<?xml version="1.0" encoding="utf-8"?>
<!-- Generator: Adobe Illustrator 22.0.1, SVG Export Plug-In . SVG Version: 6.00 Build 0)  -->
<svg version="1.1" xmlns="http://www.w3.org/2000/svg" xmlns:xlink="http://www.w3.org/1999/xlink" x="0px" y="0px"
	 viewBox="0 0 60 60" style="enable-background:new 0 0 60 60;" xml:space="preserve">
<style type="text/css">
	.st0{display:none;}
	.st1{display:inline;fill:#00913A;}
	.st2{display:inline;fill:#00A0E9;}
</style>
<g id="Layer_2" class="st0">
	<rect class="st1" width="60" height="60"/>
</g>
<g id="Layer_3" class="st0">
	<rect x="6" y="6" class="st2" width="48" height="48"/>
</g>
<g id="Layer_1">
	<g>
		<path d="M41.1,33.8l-5.8,0l1.9-1.9l-1-1l-3.8,3.8l3.8,3.8l1-1l-1.9-1.9l5.8,0c1.6,0,3,1.3,3,3c0,1.6-1.3,3-3,3h-8.1v1.8h8.1
			c2.6,0,4.8-2.1,4.8-4.7S43.7,33.8,41.1,33.8z"/>
		<path d="M45,16.7H15c-0.7,0-1.2,0.6-1.2,1.2v21.4c0,0.7,0.6,1.2,1.2,1.2h15.1v-1.8H15.5V28h28.9v3.8h1.8V18
			C46.2,17.3,45.7,16.7,45,16.7z M44.5,18.5v3.4H15.5v-3.4H44.5z M15.5,26.5v-3.2h28.9v3.2H15.5z"/>
	</g>
</g>
</svg>
