<?xml version="1.0" encoding="utf-8"?>
<!-- Generator: Adobe Illustrator 22.0.1, SVG Export Plug-In . SVG Version: 6.00 Build 0)  -->
<svg version="1.1" xmlns="http://www.w3.org/2000/svg" xmlns:xlink="http://www.w3.org/1999/xlink" x="0px" y="0px"
	 viewBox="0 0 60 60" style="enable-background:new 0 0 60 60;" xml:space="preserve">
<style type="text/css">
	.st0{display:none;}
	.st1{display:inline;fill:#00913A;}
	.st2{display:inline;fill:#00A0E9;}
</style>
<g id="Layer_2" class="st0">
	<rect class="st1" width="60" height="60"/>
</g>
<g id="Layer_3" class="st0">
	<rect x="6" y="6" class="st2" width="48" height="48"/>
</g>
<g id="Layer_1">
	<g>
		<path d="M33.2,27.6c-1.5,0-2.2,1-2.2,2.9c0,1.9,0.7,2.9,2.2,2.9c1.5,0,2.2-1,2.2-2.9C35.4,28.6,34.7,27.6,33.2,27.6z M33.6,31.7
			c-0.1,0.2-0.2,0.3-0.4,0.3c-0.2,0-0.3-0.1-0.4-0.3c-0.1-0.2-0.2-0.6-0.2-1.2c0-0.5,0.1-0.9,0.2-1.2c0.1-0.2,0.2-0.3,0.4-0.3
			c0.2,0,0.3,0.1,0.4,0.3c0.1,0.2,0.2,0.6,0.2,1.2C33.7,31.1,33.7,31.5,33.6,31.7z"/>
		<path d="M29,26.8c0-1.9-0.7-2.9-2.2-2.9c-1.5,0-2.2,1-2.2,2.9c0,1.9,0.7,2.9,2.2,2.9C28.3,29.7,29,28.7,29,26.8z M26.4,25.7
			c0.1-0.2,0.2-0.3,0.4-0.3s0.3,0.1,0.4,0.3c0.1,0.2,0.2,0.6,0.2,1.2c0,0.5-0.1,0.9-0.2,1.2c-0.1,0.2-0.2,0.3-0.4,0.3
			s-0.3-0.1-0.4-0.3c-0.1-0.2-0.2-0.6-0.2-1.2C26.3,26.3,26.3,25.9,26.4,25.7z"/>
		<polygon points="33,24.1 31.3,24.1 27.1,33 27,33.2 28.7,33.2 32.9,24.3 		"/>
		<path d="M43.9,31.7c-0.2-0.5-0.6-0.8-1.2-0.8h-3.2V15.1c0-0.7-0.6-1.2-1.2-1.2H21.8c-0.7,0-1.2,0.6-1.2,1.2V31h-3.2
			c-0.5,0-1,0.3-1.2,0.8c-0.2,0.5-0.1,1,0.3,1.4l12.7,12.7c0.2,0.2,0.6,0.4,0.9,0.4c0.3,0,0.6-0.1,0.9-0.4l12.7-12.7
			C43.9,32.7,44,32.2,43.9,31.7z M30,44.2L18.6,32.8h2.5c0.7,0,1.2-0.6,1.2-1.2V15.6h15.3v15.9c0,0.7,0.6,1.2,1.2,1.2h2.5L30,44.2z"
			/>
	</g>
</g>
</svg>
