<?xml version="1.0" encoding="utf-8"?>
<!-- Generator: Adobe Illustrator 22.0.1, SVG Export Plug-In . SVG Version: 6.00 Build 0)  -->
<svg version="1.1" xmlns="http://www.w3.org/2000/svg" xmlns:xlink="http://www.w3.org/1999/xlink" x="0px" y="0px"
	 viewBox="0 0 60 60" style="enable-background:new 0 0 60 60;" xml:space="preserve">
<style type="text/css">
	.st0{display:none;}
	.st1{display:inline;fill:#00913A;}
	.st2{display:inline;fill:#00A0E9;}
</style>
<g id="Layer_2" class="st0">
	<rect class="st1" width="60" height="60"/>
</g>
<g id="Layer_3" class="st0">
	<rect x="6" y="6" class="st2" width="48" height="48"/>
</g>
<g id="Layer_1">
	<path d="M23.1,16.4c-1,0-1.8,0.8-1.8,1.8c0,0.5,0.2,1,0.6,1.4l6.6,0c-1.1-0.8-2.1-1.5-3-2.1l-0.1-0.1c-0.3-0.2-0.6-0.4-0.9-0.5
		l-0.1-0.1c-0.1-0.1-0.2-0.1-0.2-0.1l-0.1-0.1l0,0C23.7,16.5,23.4,16.4,23.1,16.4z M36.9,16.4c-0.3,0-0.6,0.1-0.9,0.2l-0.1,0l0,0
		l0,0c0,0-0.1,0.1-0.3,0.2c-0.2,0.1-0.5,0.3-0.9,0.5l-0.1,0.1c-0.9,0.6-1.9,1.3-3.1,2.2l6.6,0c0.4-0.3,0.6-0.8,0.6-1.4
		C38.7,17.3,37.9,16.4,36.9,16.4z M43,21.4h-8.6v6.1H43V21.4z M32.7,21.4h-5.4v6.1h5.4V21.4z M25.5,21.4H17v6.1h8.6V21.4z
		 M40.2,29.3h-5.7v14.3h5.7V29.3z M32.7,29.3h-5.4v14.3h5.4V29.3z M25.5,29.3h-5.7v14.3h5.7V29.3z M36.9,14.7c2,0,3.6,1.6,3.6,3.6
		c0,0.5-0.1,0.9-0.3,1.4l3.3,0c0.7,0,1.2,0.5,1.2,1.2l0,0.1V28c0,0.7-0.5,1.2-1.2,1.2l-0.1,0H42v14.8c0,0.7-0.5,1.2-1.2,1.2l-0.1,0
		H19.3c-0.7,0-1.2-0.5-1.2-1.2l0-0.1V29.3h-1.6c-0.7,0-1.2-0.5-1.2-1.2l0-0.1v-7.1c0-0.7,0.5-1.2,1.2-1.2l0.1,0l3.3,0
		c-0.2-0.4-0.3-0.9-0.3-1.4c0-2,1.6-3.6,3.6-3.6c0.6,0,1.2,0.2,1.7,0.4l0.1,0l0.1,0.1l0.1,0.1c0.3,0.1,0.6,0.4,1.1,0.6l0.1,0.1
		c1,0.7,2.3,1.5,3.7,2.6l-0.1,0.1l0.5-0.3c1.2-0.9,2.3-1.6,3.2-2.2l0.2-0.1c0.6-0.4,1.1-0.6,1.3-0.8l0.1-0.1l0.1,0
		c0.5-0.3,1-0.4,1.6-0.4L36.9,14.7z"/>
</g>
</svg>
