<?xml version="1.0" encoding="utf-8"?>
<!-- Generator: Adobe Illustrator 24.3.0, SVG Export Plug-In . SVG Version: 6.00 Build 0)  -->
<svg version="1.1" id="Layer_1" xmlns="http://www.w3.org/2000/svg" xmlns:xlink="http://www.w3.org/1999/xlink" x="0px" y="0px"
	 viewBox="0 0 4262.5 4263.5" style="enable-background:new 0 0 4262.5 4263.5;" xml:space="preserve">
<style type="text/css">
	.st0{stroke:#1D1D1B;stroke-width:9;stroke-miterlimit:10;}
	.st1{stroke:#1D1D1B;stroke-width:8;stroke-miterlimit:10;}
	.st2{fill:none;stroke:#1D1D1B;stroke-width:100;stroke-miterlimit:10;}
</style>
<path class="st0" d="M626.5,3363.3c-33,78.7-65.4,157.7-99.2,236.1c-25.7,59.5-64.8,108.2-120.9,142.2
	c-139,84.2-297.7,18.9-337-138.9c-16.8-67.5-11-133.5,14.6-197.8c107.3-270.1,214-540.3,322.5-809.9c29.8-74,74.7-140,124.9-201.8
	c91.8-113,205.6-196.5,340.5-251.5c17.2-7,27.9-4.9,40.3,8.6c25,27.4,54,50.4,84.7,71.4c4.6,3.1,12.9,4.4,10.9,12.4
	c-1.5,6-8.7,5.6-13.6,7c-122.9,35.5-229.9,98.2-318.1,190.8c-73,76.8-127.7,165.2-166.4,264.6c-83.7,215-170.1,428.9-255.2,643.3
	c-16.9,42.5-33.8,85-49.6,127.9c-13.9,37.8-14.6,76.3-1.1,114.5c21.9,62,77.1,80.6,132.5,44.8c30.9-19.9,53.7-46.7,67.9-80.6
	c75.8-181.2,151.4-362.5,227.1-543.7c41.8-99.9,83.6-199.8,125.6-299.6c0.7-1.7,2.6-2.9,4.1-4.6c8.3,4.3,4.9,11.9,4.9,17.8
	c-0.3,220.7,0.6,441.5-1.9,662.2c-1.3,114.4,2,228.9-2.4,343.1c-3.6,93,59.5,154.2,154.6,153.7c114.4-0.6,228.8-0.1,343.2-0.1
	c155.5,0,310.9,0.1,466.4-0.1c56.2-0.1,102.3-20.2,133-69.4c13.9-22.3,20.5-46.6,20.5-72.8c0-187.1,0.2-374.2,0.2-561.3
	c0-140.7-0.1-281.3,0-422c0-4.9-3-12.4,3.6-14.2c6.7-1.9,7.6,6,10.2,10.3c118.8,200.9,237.6,401.9,356.3,602.8
	c22.1,37.4,61.1,50,102.5,33.7c31.6-12.4,52.2-36.9,71.9-62.9c67-88.5,134.2-176.8,201.4-265.1c82.8-108.6,166-216.8,248.4-325.8
	c22.6-29.9,33-64.2,27.3-102.4c-5.4-36-21.7-63.9-57.6-75.8c-38.9-12.9-74.5-3.6-101.5,26.1c-28.9,31.8-54.5,66.6-80.9,100.6
	c-96.8,124.1-193.5,248.3-289.7,372.9c-11.8,15.3-17.2,12.9-26.4-1.7c-96.7-153.8-194-307.1-294.2-458.7
	c-41.5-62.8-84.9-124.4-126.7-187.1c-38-56.9-97.6-82.7-155.8-110.4c-40.1-19.1-82.6-32.5-125.2-45.1c-5.1-1.5-12.3-1.2-13.8-6.8
	c-2-7.8,6.6-8.9,11.2-12c33.5-22.8,65.1-47.8,93.1-77.1c7-7.3,13.6-12.1,24.6-7.9c89.9,33.9,176.5,73.9,246.6,141.8
	c52,50.3,93.9,109.1,134.7,168.4c78.2,113.7,148.8,232.2,217,352.1c15,26.4,14.5,26.4,32.8,2.8c80.8-104.2,158.8-210.8,243.4-311.8
	c116.8-139.5,324.8-102.5,385.2,50.4c38.7,97.8,19.1,189.2-43.1,271.9c-58.6,77.9-118.8,154.7-178,232.1
	c-88.7,116-177.7,231.7-265.4,348.3c-33.8,44.9-71.2,84.6-124.4,105.6c-86.5,34.2-166,21.1-238-37.9c-16.8-13.7-25-33.2-35.6-51
	c-37.3-62.4-74-125.1-110.9-187.6c-1.6-2.6-3.8-4.9-8.6-10.9c0,19.8,0,35.1,0,50.3c0.1,152.8,0.4,305.5,0.3,458.3
	c-0.1,143.9-93.9,255.2-235.9,279.2c-16.4,2.8-33.5,2.1-50.3,2.1c-275.3,0.1-550.5,0.1-825.8,0c-158.4-0.1-275.4-117.6-274.5-276.1
	c0.7-117-1.4-234.1,2.7-351.1c0.2-5.3,0-10.7,0-16C628.8,3363.7,627.7,3363.5,626.5,3363.3z"/>
<path class="st1" d="M2614.6,256.9c439.5,0,879,1.2,1318.4-0.8c128.2-0.6,243.7,91.6,263.4,220.9c2.5,16.5,2.2,33.5,2.2,50.3
	c0,540.4-0.1,1080.9-0.2,1621.3c0,101.6,0.1,203.2,0.2,304.9c0.1,147.3-113.5,261.5-260.3,261.5c-251.7,0-503.4,0-755.1,0
	c-27.5,0-27.1,0-25.4-26.6c1.8-28.2,2.8-56.5,0.2-84.7c-1.4-15.6,3-22.6,19.5-20.9c10,1,20.2,0.1,30.3,0.1
	c236.2,0,472.5,0.1,708.7-0.1c28.3,0,56.7-1.6,82.2-16.1c48.1-27.5,67.7-70.5,67.7-124.4c-0.1-249,0-498,0-747
	c0-388.3,0-776.7-0.1-1165c0-64.4-30.3-112.1-83.9-132c-22.3-8.3-46-9.1-69.6-9.1c-335.8,0-671.7,0-1007.5,0c-529,0-1058,0-1587,0
	c-22.3,0-44.6,0.6-65.9,7.2c-57,17.7-90.2,66.8-90.3,133.4c-0.2,209.3-0.5,418.6,0.5,627.9c0.1,23.6-6.1,34.8-29.6,40.9
	c-29.2,7.6-56.2,22.2-83,36.3c-18.8,9.9-20.1,9.2-20.2-11.6c-0.2-49.8,0-99.6,0-149.4c0-183.7,1.8-367.5-0.6-551.2
	c-1.7-129.1,90.8-243.1,220.8-263.3c15.8-2.5,32.2-2.3,48.3-2.3C1737,256.9,2175.8,256.9,2614.6,256.9z"/>
<path class="st1" d="M1323.9,1290.7c237-4,454.2,190,454.1,454c-0.1,262.6-217.5,458.5-462.7,454.3
	c-246.5-4.2-447.4-206.4-446.7-457.8C869.4,1485.4,1082.3,1286.1,1323.9,1290.7z M1003.3,1743.3c-0.6,176.5,142.1,322,315.7,321.7
	c178.2-0.2,323.8-142.2,325-315.6c1.2-174.9-135.2-325.4-320.8-325.5C1134.1,1423.8,1001.8,1577.8,1003.3,1743.3z"/>
<g>
	<circle class="st2" cx="2792" cy="1314.3" r="511.1"/>
	<path d="M2615.8,1312.7c0-61.4,0-122.7,0-184.1c0-21,2.8-41,23.6-52.1c20.6-11,38.4-2.8,56.5,8.6c98.8,62.2,197.8,124,297,185.7
		c41.6,25.8,41.7,61.1-0.2,87.2c-99.2,61.8-198.4,123.6-297.6,185.4c-13.5,8.4-27.2,16.9-44.3,13.2c-22.1-4.8-34.6-23.1-34.8-53.1
		C2615.6,1439.7,2615.8,1376.2,2615.8,1312.7z M2703.8,1313.5c0,34.6,0.1,69.2,0,103.8c0,12,1.6,18.8,15.6,9.9
		c55.4-35,111.1-69.6,166.9-104c11.5-7.1,11.9-11.7,0-19c-55.2-33.9-110.5-67.8-165-102.8c-16.4-10.6-17.7-3.8-17.6,10.5
		C2703.9,1245.8,2703.7,1279.7,2703.8,1313.5z"/>
</g>
</svg>
