<?xml version="1.0" standalone="no"?>
<!DOCTYPE svg PUBLIC "-//W3C//DTD SVG 20010904//EN"
 "http://www.w3.org/TR/2001/REC-SVG-20010904/DTD/svg10.dtd">
<svg version="1.0" xmlns="http://www.w3.org/2000/svg"
 width="500.000000pt" height="501.000000pt" viewBox="0 0 500.000000 501.000000"
 preserveAspectRatio="xMidYMid meet">

<g transform="translate(0.000000,501.000000) scale(0.100000,-0.100000)"
fill="#000000" stroke="none">
<path d="M1320 5004 c-83 -13 -142 -30 -198 -55 -188 -84 -360 -274 -429 -471
-34 -97 -43 -245 -19 -337 70 -273 327 -472 708 -550 90 -19 278 -41 343 -41
l32 0 7 103 c3 56 15 144 26 196 11 52 19 96 17 97 -1 2 -56 22 -122 45 -309
108 -459 201 -459 284 0 38 35 88 96 138 69 55 162 46 270 -27 60 -40 183
-155 251 -235 l46 -54 53 41 c78 60 138 83 229 89 44 3 79 10 79 14 0 19 -64
169 -102 237 -85 154 -229 321 -342 396 -76 50 -173 93 -249 110 -68 15 -197
26 -237 20z m240 -173 c164 -52 326 -197 444 -399 40 -67 43 -82 21 -82 -9 0
-38 -11 -64 -25 l-49 -24 -73 70 c-142 137 -242 198 -355 218 -117 21 -228
-20 -315 -118 -67 -75 -89 -124 -89 -196 0 -147 116 -249 420 -372 106 -43
139 -61 136 -73 -2 -8 -7 -41 -11 -72 l-6 -57 -37 6 c-353 48 -584 156 -703
330 -72 105 -92 253 -50 384 58 184 251 373 432 424 71 20 212 13 299 -14z"/>
<path d="M3530 5000 c-123 -15 -229 -55 -336 -126 -110 -73 -255 -239 -337
-385 -35 -63 -107 -229 -107 -247 0 -5 35 -12 79 -15 91 -6 151 -29 228 -89
l54 -41 51 59 c164 188 313 294 411 294 69 -1 171 -76 198 -147 34 -91 -114
-193 -456 -312 -66 -23 -121 -43 -122 -45 -1 -1 7 -44 17 -96 11 -52 23 -141
27 -197 l6 -103 32 0 c65 0 253 22 343 41 380 77 640 279 708 549 24 93 15
241 -19 338 -35 100 -93 194 -173 280 -173 188 -379 270 -604 242z m205 -155
c182 -48 377 -237 436 -424 42 -131 22 -279 -50 -384 -73 -107 -219 -207 -383
-263 -64 -21 -214 -53 -319 -67 l-37 -5 -7 56 c-3 31 -8 64 -11 72 -3 12 30
30 136 73 304 123 420 225 420 372 0 72 -22 121 -89 196 -86 97 -193 137 -312
118 -113 -18 -214 -79 -358 -218 l-73 -70 -49 24 c-26 14 -55 25 -64 25 -23 0
-19 15 21 83 66 113 167 232 249 294 149 113 335 158 490 118z"/>
<path d="M2080 4089 c-61 -27 -96 -63 -131 -131 -45 -88 -60 -167 -66 -345
l-6 -163 622 0 621 0 0 119 c0 276 -50 435 -162 508 -57 38 -163 43 -302 14
-123 -26 -169 -26 -291 -1 -127 26 -226 26 -285 -1z m265 -145 c146 -29 191
-28 362 7 62 13 117 19 138 15 63 -12 106 -91 120 -222 3 -33 8 -78 11 -101
l5 -43 -479 0 -480 0 5 63 c8 102 40 217 72 257 46 57 70 59 246 24z"/>
<path d="M861 3294 c-174 -47 -314 -207 -342 -391 -6 -41 -9 -172 -7 -310 3
-267 8 -286 78 -328 35 -20 45 -20 1906 -23 1484 -2 1880 0 1910 10 70 24 72
34 75 368 2 213 -1 307 -10 340 -45 159 -180 294 -336 335 -87 22 -3190 22
-3274 -1z m3200 -134 c112 -21 200 -89 248 -190 26 -54 26 -59 29 -317 l3
-263 -1841 0 -1841 0 3 263 c3 258 3 263 29 317 46 97 137 169 240 189 64 13
3063 13 3130 1z"/>
<path d="M786 2049 c-21 -5 -51 -18 -67 -30 -63 -44 -60 -3 -57 -862 l3 -782
33 -68 c65 -132 200 -237 357 -277 74 -19 111 -20 692 -20 l613 0 0 1025 0
1025 -767 -1 c-423 -1 -785 -5 -807 -10z m1412 -1016 l-3 -878 -490 -3 c-323
-2 -513 1 -557 8 -142 24 -266 114 -307 225 -21 55 -21 71 -21 790 l0 735 690
0 690 0 -2 -877z"/>
<path d="M2640 1035 l0 -1025 613 0 c581 0 618 1 692 20 157 40 291 144 356
277 l34 68 3 785 3 786 -23 34 c-13 18 -41 43 -63 54 -39 21 -51 21 -827 24
l-788 3 0 -1026z m1540 140 c0 -719 0 -735 -21 -790 -41 -111 -165 -201 -307
-225 -44 -7 -234 -10 -557 -8 l-490 3 -3 878 -2 877 690 0 690 0 0 -735z"/>
</g>
</svg>
